HIERARCHY
ROOT Hips
{
	OFFSET 0.000000 0.000000 0.000000
	CHANNELS 6 Xposition Yposition Zposition Zrotation Yrotation Xrotation 
	JOINT LowerBack
	{
		OFFSET 0.000000 0.000000 0.000000
		CHANNELS 3 Zrotation Yrotation Xrotation
		JOINT Spine
		{
			OFFSET 0.028270 2.035590 -0.193380
			CHANNELS 3 Zrotation Yrotation Xrotation
			JOINT Spine1
			{
				OFFSET 0.056720 2.048850 -0.042750
				CHANNELS 3 Zrotation Yrotation Xrotation
				JOINT Neck
				{
					OFFSET 0.000000 0.000000 0.000000
					CHANNELS 3 Zrotation Yrotation Xrotation
					JOINT Neck1
					{
						OFFSET -0.054170 1.746240 0.172020
						CHANNELS 3 Zrotation Yrotation Xrotation
						JOINT Head
						{
							OFFSET 0.104070 1.761360 -0.123970
							CHANNELS 3 Zrotation Yrotation Xrotation
							End Site
							{
								OFFSET 0.000000 0.000000 0.000000
							}
						}
					}
				}
				JOINT LeftShoulder
				{
					OFFSET 0.000000 0.000000 0.000000
					CHANNELS 3 Zrotation Yrotation Xrotation
					JOINT LeftArm
					{
						OFFSET 3.362410 1.200890 -0.311210
						CHANNELS 3 Zrotation Yrotation Xrotation
						JOINT LeftForeArm
						{
							OFFSET 4.983000 -0.000000 -0.000000
							CHANNELS 3 Zrotation Yrotation Xrotation
							JOINT LeftHand
							{
								OFFSET 3.483560 -0.000000 -0.000000
								CHANNELS 3 Zrotation Yrotation Xrotation
								JOINT LeftFingerBase
								{
									OFFSET 0.000000 0.000000 0.000000
									CHANNELS 3 Zrotation Yrotation Xrotation
									JOINT LeftHandIndex1
									{
										OFFSET 0.715260 -0.000000 -0.000000
										CHANNELS 3 Zrotation Yrotation Xrotation
										End Site
										{
											OFFSET 0.000000 0.000000 0.000000
										}
									}
								}
								JOINT LThumb
								{
									OFFSET 0.000000 0.000000 0.000000
									CHANNELS 3 Zrotation Yrotation Xrotation
									End Site
									{
										OFFSET 0.000000 0.000000 0.000000
									}
								}
							}
						}
					}
				}
				JOINT RightShoulder
				{
					OFFSET 0.000000 0.000000 0.000000
					CHANNELS 3 Zrotation Yrotation Xrotation
					JOINT RightArm
					{
						OFFSET -3.136600 1.374050 -0.404650
						CHANNELS 3 Zrotation Yrotation Xrotation
						JOINT RightForeArm
						{
							OFFSET -5.241900 -0.000000 -0.000000
							CHANNELS 3 Zrotation Yrotation Xrotation
							JOINT RightHand
							{
								OFFSET -3.444170 -0.000000 -0.000000
								CHANNELS 3 Zrotation Yrotation Xrotation
								JOINT RightFingerBase
								{
									OFFSET 0.000000 0.000000 0.000000
									CHANNELS 3 Zrotation Yrotation Xrotation
									JOINT RightHandIndex1
									{
										OFFSET -0.622530 -0.000000 -0.000000
										CHANNELS 3 Zrotation Yrotation Xrotation
										End Site
										{
											OFFSET 0.000000 0.000000 0.000000
										}
									}
								}
								JOINT RThumb
								{
									OFFSET 0.000000 0.000000 0.000000
									CHANNELS 3 Zrotation Yrotation Xrotation
									End Site
									{
										OFFSET 0.000000 0.000000 0.000000
									}
								}
							}
						}
					}
				}
			}
		}
	}
}
}
MOTION
Frames: 18
Frame Time: 0.008333
-0.694448 16.801295 -0.577599 30.681878 80.055173 28.464993 -2.096052 -6.511533 -0.501495 -0.765545 -6.554540 -1.808042 -5.761315 -6.449565 4.230805 10.581470 -21.532642 -10.604005 -2.368574 -0.138904 -0.741183 0.000000 0.000000 0.000000 1.123612 18.720292 1.731843 -26.621076 2.833146 -3.449820 -2.516476 -45.291753 0.005388 -1.676869 -0.320055 0.006548 -0.135394 0.093433 0.000000 0.000000 0.000000 0.000000 0.000000 0.000000 0.000000 18.597690 -21.317306 -0.968333 80.304736 -22.260672 -17.716479 4.525103 13.920380 0.011147 4.037851 5.066965 0.175631 0.098154 -0.025936 -0.000000 0.000000 0.000000 0.000000 0.000000 0.000000 0.000000 
-0.512493 16.799145 -0.505007 29.254539 79.606631 26.987483 -2.005562 -6.355670 -0.418408 -0.764912 -6.399226 -1.817807 -5.781695 -6.295576 4.171147 10.572286 -21.356316 -10.593498 -2.360643 -0.138595 -0.738442 0.000000 0.000000 0.000000 1.202476 18.684656 1.707495 -27.345417 3.340141 -3.056700 -2.569820 -45.095115 0.005447 -1.818289 -0.328568 0.007054 -0.137417 0.086718 0.000000 0.000000 0.000000 0.000000 0.000000 0.000000 0.000000 18.435123 -21.022939 -0.925365 80.147775 -21.508090 -17.440817 4.494089 14.013994 0.011360 3.829667 5.125723 0.168339 0.099286 -0.027287 -0.000000 0.000000 0.000000 0.000000 0.000000 0.000000 0.000000 
-0.334498 16.794773 -0.433791 27.661904 79.080888 25.388542 -1.896591 -6.174935 -0.334662 -0.762735 -6.218856 -1.830683 -5.808974 -6.116580 4.104036 10.567513 -21.147090 -10.585829 -2.352754 -0.138280 -0.736502 0.000000 0.000000 0.000000 1.270778 18.647638 1.682723 -28.151692 3.890797 -2.637968 -2.630567 -44.864545 0.005398 -1.961305 -0.316877 0.007261 -0.139930 0.079109 0.000000 0.000000 0.000000 0.000000 0.000000 0.000000 0.000000 18.255637 -20.676246 -0.875621 79.968749 -20.643082 -17.017143 4.458543 14.163881 0.011559 3.619548 5.185319 0.160647 0.100283 -0.028701 -0.000000 0.000000 0.000000 0.000000 0.000000 0.000000 0.000000 
-0.160431 16.788306 -0.363604 25.993552 78.485952 23.757225 -1.775285 -5.975619 -0.253040 -0.759368 -6.019430 -1.846328 -5.842204 -5.918582 4.030353 10.563502 -20.903576 -10.577251 -2.346707 -0.138167 -0.734428 0.000000 0.000000 0.000000 1.321361 18.610541 1.657494 -29.022228 4.486522 -2.189461 -2.697556 -44.601991 0.005220 -2.099475 -0.282892 0.006965 -0.142897 0.070594 0.000000 0.000000 0.000000 0.000000 0.000000 0.000000 0.000000 18.064479 -20.279189 -0.822660 79.764995 -19.676721 -16.464650 4.419332 14.374342 0.011739 3.414563 5.241723 0.152957 0.101113 -0.030209 -0.000000 0.000000 0.000000 0.000000 0.000000 0.000000 0.000000 
0.009958 16.780081 -0.293998 24.337834 77.833657 22.179176 -1.650401 -5.764451 -0.176625 -0.755522 -5.807322 -1.864362 -5.879091 -5.708008 3.951721 10.556048 -20.632556 -10.564068 -2.343403 -0.138384 -0.731264 0.000000 0.000000 0.000000 1.348877 18.571667 1.631040 -29.943628 5.128780 -1.709484 -2.769594 -44.307352 0.004890 -2.228808 -0.224894 0.006168 -0.146226 0.061194 0.000000 0.000000 0.000000 0.000000 0.000000 0.000000 0.000000 17.864666 -19.843372 -0.769927 79.529623 -18.614257 -15.782039 4.376692 14.641211 0.011908 3.211358 5.297412 0.145168 0.101822 -0.031832 -0.000000 0.000000 0.000000 0.000000 0.000000 0.000000 0.000000 
0.177016 16.770515 -0.224484 22.767014 77.138460 20.721739 -1.532091 -5.547729 -0.107661 -0.752475 -5.588491 -1.884359 -5.917698 -5.490849 3.869584 10.541531 -20.338567 -10.541875 -2.344153 -0.139103 -0.725858 0.000000 0.000000 0.000000 1.351146 18.528557 1.602104 -30.908087 5.817102 -1.197553 -2.845698 -43.977772 0.004401 -2.346393 -0.142738 0.004672 -0.149805 0.050954 0.000000 0.000000 0.000000 0.000000 0.000000 0.000000 0.000000 17.661057 -19.378279 -0.720825 79.257966 -17.463950 -14.988794 4.331087 14.960162 0.012072 3.008375 5.354242 0.137180 0.102453 -0.033614 -0.000000 0.000000 0.000000 0.000000 0.000000 0.000000 0.000000 
0.341159 16.760184 -0.154625 21.332362 76.415233 19.429684 -1.429976 -5.330725 -0.048863 -0.751756 -5.367981 -1.906242 -5.956871 -5.272168 3.784677 10.517408 -20.019557 -10.505391 -2.350933 -0.140567 -0.716823 0.000000 0.000000 0.000000 1.329823 18.478834 1.569437 -31.911908 6.548255 -0.655653 -2.925223 -43.606306 0.003751 -2.450515 -0.037448 0.002572 -0.153523 0.039949 0.000000 0.000000 0.000000 0.000000 0.000000 0.000000 0.000000 17.460868 -18.885974 -0.678596 78.948199 -16.241398 -14.134643 4.283616 15.330015 0.012237 2.811315 5.411249 0.129294 0.103008 -0.035620 -0.000000 0.000000 0.000000 0.000000 0.000000 0.000000 0.000000 
0.502870 16.749638 -0.084047 20.057235 75.677767 18.319559 -1.351618 -5.117220 -0.002279 -0.754113 -5.149412 -1.929738 -5.993486 -5.055691 3.699033 10.481169 -19.692290 -10.452483 -2.362836 -0.142725 -0.703526 0.000000 0.000000 0.000000 1.285487 18.415640 1.530918 -32.957075 7.325327 -0.092581 -3.007151 -43.190655 0.002947 -2.542995 0.089604 -0.000332 -0.157198 0.028309 0.000000 0.000000 0.000000 0.000000 0.000000 0.000000 0.000000 17.263148 -18.388445 -0.644392 78.591638 -14.942736 -13.200128 4.234043 15.732180 0.012423 2.605217 5.479629 0.121009 0.103627 -0.037854 -0.000000 0.000000 0.000000 0.000000 0.000000 0.000000 0.000000 
0.662694 16.739472 -0.012428 18.948748 74.936844 17.391832 -1.302196 -4.909492 0.029754 -0.760779 -4.935085 -1.955138 -6.027907 -4.843722 3.612389 10.433255 -19.342579 -10.378395 -2.382159 -0.145830 -0.684728 0.000000 0.000000 0.000000 1.225841 18.342536 1.485955 -34.048961 8.134161 0.485046 -3.091683 -42.715826 0.002011 -2.624841 0.233497 -0.003737 -0.160740 0.016211 0.000000 0.000000 0.000000 0.000000 0.000000 0.000000 0.000000 17.076611 -17.873066 -0.620349 78.193288 -13.595003 -12.275494 4.184427 16.173324 0.012623 2.408993 5.553011 0.113026 0.104220 -0.040385 -0.000000 0.000000 0.000000 0.000000 0.000000 0.000000 0.000000 
0.821104 16.730176 0.060418 17.993111 74.200331 16.627425 -1.283200 -4.708233 0.045262 -0.771845 -4.725827 -1.982654 -6.058674 -4.637184 3.525442 10.373974 -18.973403 -10.282113 -2.408217 -0.149827 -0.660123 0.000000 0.000000 0.000000 1.155896 18.259312 1.433742 -35.195461 8.968556 1.064029 -3.178495 -42.174329 0.000969 -2.699314 0.389649 -0.007548 -0.164014 0.003875 0.000000 0.000000 0.000000 0.000000 0.000000 0.000000 0.000000 16.900612 -17.344761 -0.606294 77.750756 -12.207391 -11.376387 4.135521 16.645201 0.012847 2.222669 5.635997 0.105545 0.104819 -0.043211 -0.000000 0.000000 0.000000 0.000000 0.000000 0.000000 0.000000 
0.978555 16.722125 0.134572 17.168792 73.471682 16.002070 -1.293610 -4.513196 0.041819 -0.786832 -4.521610 -2.012718 -6.084143 -4.436169 3.438731 10.304733 -18.593105 -10.164839 -2.439237 -0.154542 -0.629960 0.000000 0.000000 0.000000 1.077874 18.162400 1.373860 -36.402972 9.831483 1.626101 -3.266954 -41.566872 -0.000152 -2.771979 0.553573 -0.011863 -0.166882 -0.008488 0.000000 0.000000 0.000000 0.000000 0.000000 0.000000 0.000000 16.731712 -16.813239 -0.600466 77.260647 -10.782285 -10.491904 4.087629 17.136050 0.013104 2.041603 5.734023 0.098265 0.105477 -0.046298 -0.000000 0.000000 0.000000 0.000000 0.000000 0.000000 0.000000 
1.135473 16.715578 0.210049 16.452036 72.750568 15.491326 -1.330998 -4.323174 0.017235 -0.805079 -4.321480 -2.045574 -6.103019 -4.239810 3.353363 10.228834 -18.210762 -10.030506 -2.472984 -0.159717 -0.595234 0.000000 0.000000 0.000000 0.992789 18.055168 1.306538 -37.676540 10.716873 2.153193 -3.356532 -40.893372 -0.001325 -2.847532 0.720701 -0.016384 -0.169241 -0.020647 0.000000 0.000000 0.000000 0.000000 0.000000 0.000000 0.000000 16.567310 -16.287783 -0.600735 76.718767 -9.320234 -9.603593 4.040971 17.638446 0.013398 1.863026 5.849440 0.091086 0.106231 -0.049593 -0.000000 0.000000 0.000000 0.000000 0.000000 0.000000 0.000000 
1.292108 16.710615 0.286742 15.813487 72.031818 15.066931 -1.390361 -4.136454 -0.031018 -0.825900 -4.124160 -2.082145 -6.116007 -4.046919 3.268052 10.149120 -17.805606 -9.880076 -2.509281 -0.165309 -0.556224 0.000000 0.000000 0.000000 0.905836 17.950878 1.234313 -39.021922 11.608532 2.630509 -3.447571 -40.147267 -0.002515 -2.929365 0.884094 -0.021210 -0.171084 -0.032338 0.000000 0.000000 0.000000 0.000000 0.000000 0.000000 0.000000 16.405857 -15.744547 -0.605894 76.131456 -7.848817 -8.757200 3.997007 18.163533 0.013720 1.706995 5.976862 0.084809 0.106933 -0.053082 -0.000000 0.000000 0.000000 0.000000 0.000000 0.000000 0.000000 
1.448737 16.707167 0.364552 15.230788 71.308487 14.709556 -1.467049 -3.950741 -0.104876 -0.848310 -3.927705 -2.122834 -6.122379 -3.855634 3.183372 10.069146 -17.383424 -9.719822 -2.545600 -0.171009 -0.514547 0.000000 0.000000 0.000000 0.814043 17.856520 1.159093 -40.437684 12.500505 3.042826 -3.539356 -39.335809 -0.003705 -3.021836 1.041629 -0.026140 -0.172368 -0.043388 0.000000 0.000000 0.000000 0.000000 0.000000 0.000000 0.000000 16.243148 -15.187221 -0.613033 75.496198 -6.372707 -7.928553 3.955495 18.715133 0.014060 1.574097 6.111559 0.079633 0.107571 -0.056693 -0.000000 0.000000 0.000000 0.000000 0.000000 0.000000 0.000000 
1.605536 16.705055 0.443332 14.683208 70.571007 14.402391 -1.556147 -3.763949 -0.205962 -0.871446 -3.730421 -2.168230 -6.122159 -3.664343 3.098897 9.991213 -16.933631 -9.554129 -2.580408 -0.176619 -0.471358 0.000000 0.000000 0.000000 0.716871 17.785740 1.084160 -41.921956 13.379918 3.380269 -3.631447 -38.463953 -0.004876 -3.127356 1.190387 -0.031276 -0.173107 -0.053614 0.000000 0.000000 0.000000 0.000000 0.000000 0.000000 0.000000 16.074173 -14.601679 -0.620135 74.815039 -4.909700 -7.119038 3.916497 19.305634 0.014411 1.474335 6.247082 0.075858 0.108047 -0.060377 -0.000000 0.000000 0.000000 0.000000 0.000000 0.000000 0.000000 
1.762606 16.703978 0.522980 14.155486 69.808797 14.134670 -1.653718 -3.574782 -0.334601 -0.894032 -3.531267 -2.217926 -6.113331 -3.472036 3.017185 9.917932 -16.485027 -9.393716 -2.609629 -0.181659 -0.429382 0.000000 0.000000 0.000000 0.601129 17.740872 1.010415 -43.464639 14.256233 3.628057 -3.721906 -37.559301 -0.006034 -3.250963 1.332207 -0.036716 -0.173232 -0.062978 0.000000 0.000000 0.000000 0.000000 0.000000 0.000000 0.000000 15.892965 -14.016494 -0.623380 74.077084 -3.432506 -6.219149 3.878060 19.919518 0.014772 1.381003 6.388044 0.072384 0.108555 -0.064022 -0.000000 0.000000 0.000000 0.000000 0.000000 0.000000 0.000000 
1.919981 16.703608 0.603413 13.640760 69.012506 13.900478 -1.756557 -3.381492 -0.489985 -0.916108 -3.328819 -2.272514 -6.097920 -3.277317 2.935753 9.849025 -15.996786 -9.237930 -2.634709 -0.186246 -0.388551 0.000000 0.000000 0.000000 0.472112 17.745290 0.943410 -45.060736 15.099596 3.794416 -3.810814 -36.617291 -0.007163 -3.390055 1.465629 -0.042461 -0.172846 -0.071339 0.000000 0.000000 0.000000 0.000000 0.000000 0.000000 0.000000 15.698027 -13.384489 -0.623315 73.294778 -1.995050 -5.316669 3.840656 20.600015 0.015109 1.329085 6.512830 0.070810 0.108774 -0.067639 -0.000000 0.000000 0.000000 0.000000 0.000000 0.000000 0.000000 
2.077769 16.703607 0.684639 13.135971 68.174732 13.697868 -1.863171 -3.184081 -0.669183 -0.936901 -3.123136 -2.330786 -6.073935 -3.080197 2.857605 9.784633 -15.498050 -9.096027 -2.652509 -0.190003 -0.351242 0.000000 0.000000 0.000000 0.316888 17.800117 0.883677 -46.697507 15.918695 3.874952 -3.895944 -35.667877 -0.008276 -3.547772 1.595306 -0.048608 -0.171887 -0.078745 -0.000000 0.000000 0.000000 0.000000 0.000000 0.000000 0.000000 15.485170 -12.735607 -0.617370 72.457594 -0.568555 -4.307017 3.801720 21.332624 0.015422 1.287699 6.626030 0.069637 0.108923 -0.071140 -0.000000 0.000000 0.000000 0.000000 0.000000 0.000000 0.000000 
